<svg id="e5frzyejpt5p1" xmlns="http://www.w3.org/2000/svg" xmlns:xlink="http://www.w3.org/1999/xlink" viewBox="0 0 1514 1528" shape-rendering="geometricPrecision" text-rendering="geometricPrecision"><style><![CDATA[#e5frzyejpt5p26_tr {animation: e5frzyejpt5p26_tr__tr 3000ms linear infinite normal forwards}@keyframes e5frzyejpt5p26_tr__tr { 0% {transform: translate(757px,764px) rotate(0deg)} 50% {transform: translate(757px,764px) rotate(360deg)} 100% {transform: translate(757px,764px) rotate(720deg)} }#e5frzyejpt5p26_ts {animation: e5frzyejpt5p26_ts__ts 3000ms linear infinite normal forwards}@keyframes e5frzyejpt5p26_ts__ts { 0% {transform: scale(1,1)} 50% {transform: scale(0.500000,0.500000)} 100% {transform: scale(1,1)} }]]></style><defs><clipPath id="e5frzyejpt5p2"><use id="e5frzyejpt5p3" width="49.017456" height="54.078369" xlink:href="#null"/></clipPath><clipPath id="e5frzyejpt5p4"><use id="e5frzyejpt5p5" width="58.967529" height="39.933899" xlink:href="#null"/></clipPath><clipPath id="e5frzyejpt5p6"><use id="e5frzyejpt5p7" width="52.665771" height="51.076416" xlink:href="#null"/></clipPath><clipPath id="e5frzyejpt5p8"><use id="e5frzyejpt5p9" width="57.901917" height="42.401917" xlink:href="#null"/></clipPath><clipPath id="e5frzyejpt5p10"><use id="e5frzyejpt5p11" width="60.005127" height="31.013977" xlink:href="#null"/></clipPath><clipPath id="e5frzyejpt5p12"><use id="e5frzyejpt5p13" width="31.008972" height="60.008789" xlink:href="#null"/></clipPath><clipPath id="e5frzyejpt5p14"><use id="e5frzyejpt5p15" width="58.237793" height="41.638794" xlink:href="#null"/></clipPath><clipPath id="e5frzyejpt5p16"><use id="e5frzyejpt5p17" width="47.891785" height="54.591766" xlink:href="#null"/></clipPath><clipPath id="e5frzyejpt5p18"><use id="e5frzyejpt5p19" width="50.402466" height="52.868896" xlink:href="#null"/></clipPath><clipPath id="e5frzyejpt5p20"><use id="e5frzyejpt5p21" width="55.255890" height="46.955872" xlink:href="#null"/></clipPath><clipPath id="e5frzyejpt5p22"><use id="e5frzyejpt5p23" width="39.693298" height="58.793304" xlink:href="#null"/></clipPath><clipPath id="e5frzyejpt5p24"><use id="e5frzyejpt5p25" width="54.823364" height="48.223328" xlink:href="#null"/></clipPath></defs><g id="e5frzyejpt5p26_tr" transform="translate(757,764) rotate(0)"><g id="e5frzyejpt5p26_ts" transform="scale(1,1)"><g id="e5frzyejpt5p26" transform="translate(-756.955864,-764.010487)"><g id="e5frzyejpt5p27"/><g id="e5frzyejpt5p28"/><g id="e5frzyejpt5p29"/><g id="e5frzyejpt5p30"/><g id="e5frzyejpt5p31"/><g id="e5frzyejpt5p32"/><g id="e5frzyejpt5p33"/><g id="e5frzyejpt5p34"/><g id="e5frzyejpt5p35"/><g id="e5frzyejpt5p36"/><g id="e5frzyejpt5p37"/><g id="e5frzyejpt5p38"/><g id="e5frzyejpt5p39"/><g id="e5frzyejpt5p40"/><g id="e5frzyejpt5p41"/><g id="e5frzyejpt5p42"/><g id="e5frzyejpt5p43"/><g id="e5frzyejpt5p44"/><g id="e5frzyejpt5p45"/><g id="e5frzyejpt5p46"><g id="e5frzyejpt5p47"><g id="e5frzyejpt5p48"><g id="e5frzyejpt5p49" clip-path="url(#e5frzyejpt5p2)"><image id="e5frzyejpt5p50" width="131.500000" height="122.500000" xlink:href="8B0DE73B35307D0E.png" preserveAspectRatio="xMidYMid meet" transform="matrix(1 0 0 1 655.45699999999999 854.33699999999999)"/></g></g><g id="e5frzyejpt5p51"><g id="e5frzyejpt5p52" clip-path="url(#e5frzyejpt5p4)"><image id="e5frzyejpt5p53" width="87.800000" height="134.100000" xlink:href="8B0DE73B35307D15.png" preserveAspectRatio="xMidYMid meet" transform="matrix(1 0 0 1 594.96400000000006 605.10299999999995)"/></g></g></g></g><g id="e5frzyejpt5p54"><g id="e5frzyejpt5p55"><g id="e5frzyejpt5p56"><g id="e5frzyejpt5p57" clip-path="url(#e5frzyejpt5p6)"><image id="e5frzyejpt5p58" width="127.900000" height="127.200000" xlink:href="8B0DE73B35307D16.png" preserveAspectRatio="xMidYMid meet" transform="matrix(1 0 0 1 552.04399999999998 644.35599999999999)"/></g></g><g id="e5frzyejpt5p59"><g id="e5frzyejpt5p60" clip-path="url(#e5frzyejpt5p8)"><image id="e5frzyejpt5p61" width="103.500000" height="134.300000" xlink:href="8B0DE73B35307D13.png" preserveAspectRatio="xMidYMid meet" transform="matrix(1 0 0 1 869.75599999999997 694.74800000000005)"/></g></g></g></g><g id="e5frzyejpt5p62"><g id="e5frzyejpt5p63"><g id="e5frzyejpt5p64"><g id="e5frzyejpt5p65" clip-path="url(#e5frzyejpt5p10)"><image id="e5frzyejpt5p66" width="62.500000" height="121.200000" xlink:href="8B0DE73B35307D1D.png" preserveAspectRatio="xMidYMid meet" transform="matrix(1 0 0 1 879.07799999999997 644)"/></g></g><g id="e5frzyejpt5p67"><g id="e5frzyejpt5p68" clip-path="url(#e5frzyejpt5p12)"><image id="e5frzyejpt5p69" width="121.200000" height="62.700000" xlink:href="8B0DE73B35307D1C.png" preserveAspectRatio="xMidYMid meet" transform="matrix(1 0 0 1 644 879.07600000000002)"/></g></g></g></g><g id="e5frzyejpt5p70"><g id="e5frzyejpt5p71"><g id="e5frzyejpt5p72"><g id="e5frzyejpt5p73" clip-path="url(#e5frzyejpt5p14)"><image id="e5frzyejpt5p74" width="97.400000" height="135.100000" xlink:href="19026B8EB0021351.png" preserveAspectRatio="xMidYMid meet" transform="matrix(1 0 0 1 338.30300000000000 905.88300000000004)"/></g></g><g id="e5frzyejpt5p75"><g id="e5frzyejpt5p76" clip-path="url(#e5frzyejpt5p16)"><image id="e5frzyejpt5p77" width="133.100000" height="119.600000" xlink:href="19026B8EB0021350.png" preserveAspectRatio="xMidYMid meet" transform="matrix(1 0 0 1 497.40800000000002 323.20400000000001)"/></g></g></g></g><g id="e5frzyejpt5p78"><g id="e5frzyejpt5p79"><g id="e5frzyejpt5p80"><g id="e5frzyejpt5p81" clip-path="url(#e5frzyejpt5p18)"><image id="e5frzyejpt5p82" width="131.200000" height="124" xlink:href="19026B8EB0021353.png" preserveAspectRatio="xMidYMid meet" transform="matrix(1 0 0 1 1025.71000000000004 982.04200000000003)"/></g></g><g id="e5frzyejpt5p83"><g id="e5frzyejpt5p84" clip-path="url(#e5frzyejpt5p20)"><image id="e5frzyejpt5p85" width="117.200000" height="133.700000" xlink:href="19026B8EB002136F.png" preserveAspectRatio="xMidYMid meet" transform="matrix(1 0 0 1 316.88200000000001 882.35100000000000)"/></g></g></g></g><g id="e5frzyejpt5p86"><g id="e5frzyejpt5p87"><g id="e5frzyejpt5p88"><g id="e5frzyejpt5p89" clip-path="url(#e5frzyejpt5p22)"><image id="e5frzyejpt5p90" width="133.900000" height="91" xlink:href="19026B8EB0021371.png" preserveAspectRatio="xMidYMid meet" transform="matrix(1 0 0 1 513.13599999999997 328.38400000000001)"/></g></g><g id="e5frzyejpt5p91"><g id="e5frzyejpt5p92" clip-path="url(#e5frzyejpt5p24)"><image id="e5frzyejpt5p93" width="117.700000" height="134.300000" xlink:href="19026B8EB0021370.png" preserveAspectRatio="xMidYMid meet" transform="matrix(1 0 0 1 1016.88000000000000 994.62699999999995)"/></g></g></g></g><g id="e5frzyejpt5p94"/><g id="e5frzyejpt5p95"/><g id="e5frzyejpt5p96"/><g id="e5frzyejpt5p97"/><g id="e5frzyejpt5p98"><g id="e5frzyejpt5p99"/></g><g id="e5frzyejpt5p100"><g id="e5frzyejpt5p101"/></g><g id="e5frzyejpt5p102"><g id="e5frzyejpt5p103"/></g><g id="e5frzyejpt5p104"><g id="e5frzyejpt5p105"/></g><g id="e5frzyejpt5p106"><g id="e5frzyejpt5p107"/></g><g id="e5frzyejpt5p108"><g id="e5frzyejpt5p109"/></g><g id="e5frzyejpt5p110"><g id="e5frzyejpt5p111"/></g><g id="e5frzyejpt5p112"/><g id="e5frzyejpt5p113"/><g id="e5frzyejpt5p114"/><g id="e5frzyejpt5p115"/><g id="e5frzyejpt5p116"/><g id="e5frzyejpt5p117"/><g id="e5frzyejpt5p118"/><g id="e5frzyejpt5p119"/><g id="e5frzyejpt5p120"/><g id="e5frzyejpt5p121"/><g id="e5frzyejpt5p122"/><g id="e5frzyejpt5p123"/><g id="e5frzyejpt5p124"/><g id="e5frzyejpt5p125"/><g id="e5frzyejpt5p126"/><g id="e5frzyejpt5p127"/><path id="e5frzyejpt5p128" d="M345.600000,684.500000C355,634.900000,373.200000,586.700000,400.100000,542.600000" fill="none" stroke="rgb(73,185,115)" stroke-width="60" stroke-linecap="round" stroke-miterlimit="10"/><path id="e5frzyejpt5p129" d="M657.400000,665.600000C683.900000,636.900000,721.900000,618.900000,764,618.900000C773.100000,618.900000,782,619.700000,790.600000,621.300000" fill="none" stroke="rgb(73,185,115)" stroke-width="60" stroke-linecap="round" stroke-miterlimit="10"/><path id="e5frzyejpt5p130" d="M674.800000,878.500000C661,867.700000,649.100000,854.500000,640,839.400000C637.500000,835.300000,635.200000,831.100000,633.200000,826.800000" transform="matrix(1 0 0 1 -0.39999999999998 -2.19999999999993)" fill="none" stroke="rgb(73,185,115)" stroke-width="60" stroke-linecap="round" stroke-miterlimit="10"/><path id="e5frzyejpt5p131" d="M909.100000,764C909.100000,803.100000,893.700000,838.500000,868.500000,864.600000" transform="matrix(1 0 0 1 1.22799999999995 -2.10199999999998)" fill="none" stroke="rgb(73,185,115)" stroke-width="60" stroke-linecap="round" stroke-miterlimit="10"/><path id="e5frzyejpt5p132" d="M833.300000,1184.300000C778.900000,1193.200000,723.200000,1191.500000,669.600000,1179.300000" fill="none" stroke="rgb(73,185,115)" stroke-width="60" stroke-linecap="round" stroke-miterlimit="10"/><path id="e5frzyejpt5p133" d="M1046.300000,1082.900000C1003.700000,1120.600000,955.600000,1148.300000,905,1166" fill="none" stroke="rgb(73,185,115)" stroke-width="60" stroke-linecap="round" stroke-miterlimit="10"/><path id="e5frzyejpt5p134" d="M637.200000,357.300000C792.300000,309.100000,968.200000,352.200000,1082.800000,481.700000C1090,489.800000,1096.800000,498.200000,1103.300000,506.700000" fill="none" stroke="rgb(73,185,115)" stroke-width="60" stroke-linecap="round" stroke-miterlimit="10"/><path id="e5frzyejpt5p135" d="M406,764C406,680.600000,434.500000,603.900000,482.300000,543.100000C514.500000,502.100000,555.500000,468.300000,602.400000,444.500000C650.900000,419.900000,705.800000,406,764,406" fill="none" stroke="rgb(225,225,225)" stroke-width="3" stroke-linecap="round" stroke-miterlimit="10"/><path id="e5frzyejpt5p136" d="M764,1122C700.800000,1122,641.500000,1105.600000,590,1076.900000C535.100000,1046.300000,489.100000,1001.700000,456.800000,947.800000" fill="none" stroke="rgb(225,225,225)" stroke-width="3" stroke-linecap="round" stroke-miterlimit="10"/><path id="e5frzyejpt5p137" d="M991.700000,487.800000C1071.300000,553.500000,1122,652.800000,1122,764C1122,810,1113.300000,853.900000,1097.600000,894.300000C1083.800000,929.600000,1064.600000,962.100000,1041,990.900000C1003.300000,1036.900000,954.400000,1073.300000,898.400000,1095.900000" fill="none" stroke="rgb(225,225,225)" stroke-width="3" stroke-linecap="round" stroke-miterlimit="10"/><path id="e5frzyejpt5p138" d="M150.500000,982.400000C134.300000,936.800000,123.300000,889.700000,117.600000,842C110.200000,780.700000,111.600000,718.500000,121.700000,657.400000" fill="none" stroke="rgb(225,225,225)" stroke-width="3" stroke-linecap="round" stroke-miterlimit="10"/><path id="e5frzyejpt5p139" d="M1222.100000,301.400000C1290.100000,368.700000,1340.100000,447.300000,1372.100000,531.200000" fill="none" stroke="rgb(225,225,225)" stroke-width="3" stroke-linecap="round" stroke-miterlimit="10"/><path id="e5frzyejpt5p140" d="M235.300000,384C255,356.700000,277,330.600000,301.500000,305.900000" fill="none" stroke="rgb(225,225,225)" stroke-width="3" stroke-linecap="round" stroke-miterlimit="10"/><path id="e5frzyejpt5p141" d="M46.700000,1026.100000C-6.800000,879.700000,-12.700000,727.400000,21.200000,586.400000C35.900000,525,58.200000,465.800000,87.300000,410" fill="none" stroke="rgb(225,225,225)" stroke-width="3" stroke-linecap="round" stroke-miterlimit="10"/><path id="e5frzyejpt5p142" d="M1513.800000,909.800000C1509,934.300000,1503,958.500000,1495.900000,982.400000C1486,1015.400000,1473.900000,1047.700000,1459.800000,1079" fill="none" stroke="rgb(225,225,225)" stroke-width="3" stroke-linecap="round" stroke-miterlimit="10"/><path id="e5frzyejpt5p143" d="M554.700000,642.200000C568.400000,618.700000,585.900000,597.700000,606.500000,580.100000C648.800000,543.800000,703.900000,521.800000,764.100000,521.800000C786.700000,521.800000,808.600000,524.900000,829.400000,530.700000" fill="none" stroke="rgb(225,225,225)" stroke-width="3" stroke-linecap="round" stroke-miterlimit="10"/><path id="e5frzyejpt5p144" d="M585.100000,927.200000C563.200000,903.200000,546,874.800000,535.200000,843.400000C526.600000,818.500000,521.900000,791.800000,521.900000,764" fill="none" stroke="rgb(225,225,225)" stroke-width="3" stroke-linecap="round" stroke-miterlimit="10"/><path id="e5frzyejpt5p145" d="M871.200000,981.100000C838.900000,997.100000,802.500000,1006.100000,764,1006.100000C732.400000,1006.100000,702.100000,1000,674.400000,989" fill="none" stroke="rgb(225,225,225)" stroke-width="3" stroke-linecap="round" stroke-miterlimit="10"/><path id="e5frzyejpt5p146" d="M1006.100000,764C1006.100000,788.900000,1002.300000,812.900000,995.400000,835.600000C990,853.100000,982.700000,869.700000,973.700000,885.200000" fill="none" stroke="rgb(225,225,225)" stroke-width="3" stroke-linecap="round" stroke-miterlimit="10"/><g id="e5frzyejpt5p147"><path id="e5frzyejpt5p148" d="M1355.900000,1035.500000C1324.900000,1103,1281.800000,1166.300000,1226.500000,1222.100000C1140,1309.500000,1034.800000,1367.200000,923.600000,1395.200000C874.400000,1407.600000,824,1414.200000,773.500000,1414.900000C669.700000,1416.400000,565.600000,1393.300000,470.700000,1345.400000C411.300000,1315.400000,355.600000,1275.800000,305.800000,1226.500000" fill="none" stroke="rgb(225,225,225)" stroke-width="3" stroke-linecap="round" stroke-miterlimit="10"/><path id="e5frzyejpt5p149" d="M631.300000,126.500000C684,115.600000,737.800000,111.200000,791.400000,113.500000C893.100000,117.800000,993.900000,145.700000,1085.100000,197.400000" fill="none" stroke="rgb(225,225,225)" stroke-width="3" stroke-linecap="round" stroke-miterlimit="10"/><path id="e5frzyejpt5p150" d="M323,140.200000C377,102.100000,436.800000,70.400000,501.900000,46.700000C647.900000,-6.600000,799.600000,-12.700000,940.300000,20.900000C1181.300000,78.300000,1389.900000,251.800000,1481.300000,501.900000" fill="none" stroke="rgb(225,225,225)" stroke-width="3" stroke-linecap="round" stroke-miterlimit="10"/><path id="e5frzyejpt5p151" d="M1234.700000,1365.600000C1173.200000,1413.700000,1103.300000,1453,1026.100000,1481.300000C914.700000,1522,799.900000,1535.200000,689.300000,1524.200000C632.800000,1518.600000,577.300000,1506.700000,523.900000,1489C455.100000,1466.200000,389.800000,1433.700000,330,1392.500000C235.300000,1327.300000,154.700000,1240.200000,96.500000,1135.400000" fill="none" stroke="rgb(225,225,225)" stroke-width="3" stroke-linecap="round" stroke-miterlimit="10"/></g></g></g></g></svg>